<svg width="47" height="60" viewBox="0 0 47 60" fill="none" xmlns="http://www.w3.org/2000/svg">
<path d="M0 8C0 3.58172 3.58172 0 8 0H39C43.4183 0 47 3.58172 47 8V39C47 43.4183 43.4183 47 39 47H30.6659C29.88 47 29.167 47.4602 28.8434 48.1764L23.9556 58.9918C23.7784 59.3839 23.2216 59.3839 23.0444 58.9918L18.1566 48.1764C17.833 47.4602 17.12 47 16.3341 47H8C3.58172 47 0 43.4183 0 39V8Z" fill="#FF9549"/>
<g clip-path="url(#clip0_8_6254)">
<path d="M34.9079 10.156C34.8849 9.78899 34.862 9.46789 34.7473 9.16972C34.5639 8.80275 34.1741 8.55046 33.3256 8.45872C29.4044 8.06881 27.5699 8 23.5111 8C19.4293 8 17.6407 8.06881 13.6736 8.45872C12.8022 8.55046 12.4353 8.80275 12.2518 9.19266C12.1372 9.46789 12.1142 9.78899 12.0913 10.156C11.8849 14.6284 11.9996 26.7844 12.5958 33.6193C12.6646 34.3991 12.7105 35.2477 12.8251 35.9358C13.0086 36.9908 13.4443 37.289 14.2698 37.4495C15.7374 37.7477 18.5808 38 23.4881 38C28.3954 38 31.2618 37.7706 32.7065 37.4495C33.532 37.2661 33.9906 36.9679 34.1511 35.9358C34.2658 35.2477 34.3117 34.3991 34.3804 33.6193C34.9767 26.7844 35.1142 14.6284 34.9079 10.156ZM13.1232 10.6376C13.1461 10.1101 13.0544 9.72018 13.513 9.39908L19.9796 10.5688C20.209 10.4312 23.4193 10.4312 23.5111 10.4312C23.6028 10.4312 26.8131 10.4312 27.0425 10.5688L33.4403 9.39908C33.876 9.69725 33.8072 10.0872 33.8301 10.6376C33.8989 12.0138 33.9218 14.1697 33.9218 16.6697V16.7156L28.7852 17.0826C27.524 17.1972 27.3635 17.5183 27.3635 18.1147C27.3635 18.1147 27.2947 22.1284 27.2718 23.5505C27.2259 25.5688 27.0425 28.5505 27.0425 28.6422C27.0195 29.1239 26.6985 29.4679 26.2399 29.5138C26.2399 29.5138 24.6118 29.5826 23.4881 29.5596H23.4652C22.3416 29.5596 20.7134 29.5138 20.7134 29.5138C20.2548 29.4679 19.9338 29.1239 19.9109 28.6422C19.9109 28.5505 19.7274 25.5459 19.6815 23.5505C19.6357 22.1284 19.5898 18.1147 19.5898 18.1147C19.5898 17.5183 19.4293 17.1972 18.1681 17.0826L13.0315 16.6697C13.0315 14.1697 13.0544 12.0367 13.1232 10.6376ZM23.4881 30.4312H23.5111L26.0564 30.4083C28.0514 30.4312 27.8451 30.2477 28.1202 28.5046C28.189 28.0688 29.1063 18.2064 29.1063 18.2064C29.1292 17.9771 29.2668 17.8853 29.4502 17.8624L33.7842 17.2661C33.876 17.2661 33.9448 17.3119 33.9218 17.4037C33.9218 17.4037 33.5779 33.7339 33.1192 35.7294C33.0275 36.1651 32.9128 36.2569 32.5459 36.3486C32.5459 36.3486 30.3675 36.8761 23.4881 36.8761C16.6317 36.8761 14.4303 36.3486 14.4303 36.3486C14.0634 36.2569 13.9487 36.1651 13.857 35.7294C13.3755 33.7569 13.0315 17.4037 13.0315 17.4037C13.0315 17.3119 13.1003 17.2661 13.1691 17.2661L17.5031 17.8394C17.6865 17.8624 17.8012 17.9541 17.847 18.1835C17.847 18.1835 18.7643 28.0459 18.8331 28.4817C19.1083 30.2248 18.9019 30.4083 20.8969 30.3853L23.4652 30.4312H23.4881Z" fill="#181818"/>
<path d="M21.5852 32.289C21.5852 32.2661 21.5622 32.2661 21.5393 32.2661H20.8514C20.8284 32.2661 20.8284 32.2661 20.8055 32.289L19.3608 34.445C19.3608 34.4679 19.3608 34.4909 19.3838 34.4909H20.0717C20.0946 34.4909 20.0946 34.4909 20.1176 34.4679L20.4845 33.9175C20.5074 33.8946 20.5303 33.8716 20.5533 33.8716H21.8603C21.8833 33.8716 21.9291 33.8946 21.9291 33.9175L22.296 34.4679C22.296 34.4909 22.319 34.4909 22.3419 34.4909H23.0298C23.0528 34.4909 23.0528 34.4679 23.0528 34.445L21.5852 32.289ZM21.5622 33.5046H20.8055C20.7596 33.5046 20.7367 33.4588 20.7596 33.4358L21.1265 32.8854C21.1495 32.8624 21.1953 32.8624 21.1953 32.8854L21.5622 33.4358C21.631 33.4588 21.6081 33.5046 21.5622 33.5046Z" fill="#181818"/>
<path d="M19.3151 32.2661H15.8296C15.8066 32.2661 15.8066 32.289 15.8066 32.312L15.9901 32.5872C16.013 32.6101 16.036 32.6331 16.0589 32.6331H17.1825C17.2054 32.6331 17.2284 32.656 17.2284 32.679V34.4679C17.2284 34.4909 17.2513 34.4909 17.2513 34.4909H17.8704C17.8934 34.4909 17.8934 34.4679 17.8934 34.4679V32.679C17.8934 32.656 17.9163 32.6331 17.9392 32.6331H19.0629C19.0858 32.6331 19.1317 32.6101 19.1317 32.5872L19.3151 32.312C19.361 32.289 19.338 32.2661 19.3151 32.2661Z" fill="#181818"/>
<path d="M27.1116 32.2661H26.4924C26.4695 32.2661 26.4695 32.289 26.4695 32.289V33.8487C26.4695 33.8716 26.4466 33.8716 26.4237 33.8716L24.4057 32.289C24.3828 32.2661 24.3598 32.2661 24.3369 32.2661H23.7407C23.7178 32.2661 23.7178 32.289 23.7178 32.289V34.445C23.7178 34.4679 23.7407 34.4679 23.7407 34.4679H24.3828C24.4057 34.4679 24.4057 34.445 24.4057 34.445V32.8854C24.4057 32.8624 24.4286 32.8624 24.4516 32.8624L26.4695 34.445C26.4924 34.4679 26.5154 34.4679 26.5383 34.4679H27.1345C27.1575 34.4679 27.1575 34.445 27.1575 34.445V32.289C27.1575 32.2661 27.1345 32.2661 27.1116 32.2661Z" fill="#181818"/>
<path d="M31.331 34.445L29.8635 33.2524C29.8405 33.2294 29.8405 33.2294 29.8635 33.2065L31.3081 32.289C31.331 32.289 31.3081 32.2661 31.3081 32.2661H30.5743C30.5514 32.2661 30.5285 32.2661 30.5055 32.289L28.9233 33.2753C28.9003 33.2753 28.8774 33.2753 28.8774 33.2524V32.289C28.8774 32.2661 28.8545 32.2661 28.8545 32.2661H28.2353C28.2124 32.2661 28.2124 32.289 28.2124 32.289V34.445C28.2124 34.4679 28.2353 34.4679 28.2353 34.4679H28.8545C28.8774 34.4679 28.8774 34.445 28.8774 34.445V33.8487C28.8774 33.8257 28.8774 33.8257 28.9003 33.8028L29.4048 33.4817C29.4278 33.4817 29.4507 33.4817 29.4736 33.4817L30.6202 34.4221C30.6431 34.445 30.666 34.445 30.7119 34.445H31.3081C31.331 34.4679 31.331 34.4679 31.331 34.445Z" fill="#181818"/>
</g>
<defs>
<clipPath id="clip0_8_6254">
<rect width="23" height="30" fill="white" transform="translate(12 8)"/>
</clipPath>
</defs>
</svg>
